<svg xmlns="http://www.w3.org/2000/svg" width="1200" height="675" viewBox="0 0 1200 675"><rect width="1200" height="675" fill="#f7fbff"/><style>text{font-family:-apple-system,BlinkMacSystemFont,'Segoe UI',Arial,sans-serif}</style><text x="64" y="86" font-size="40" font-weight="800" fill="#0f172a">模型提供商</text><text x="66" y="126" font-size="22" fill="#64748b">系统模型和自定义 API Key 可以在同一个工作区管理</text><rect x="80" y="170" width="1040" height="392" rx="22" fill="#fff" stroke="#dbe7f3"/><text x="122" y="230" font-size="28" font-weight="760" fill="#0f172a">Workspace · Model Providers</text><text x="122" y="270" font-size="20" fill="#64748b">README 和文档都把模型接入当成 Dify 的基础能力。</text><g font-size="19" font-weight="720"><rect x="122" y="320" width="160" height="72" rx="14" fill="#eff6ff" stroke="#93c5fd"/><text x="147" y="365" fill="#1d4ed8">OpenAI</text><rect x="318" y="320" width="160" height="72" rx="14" fill="#f0fdf4" stroke="#86efac"/><text x="343" y="365" fill="#166534">Anthropic</text><rect x="514" y="320" width="180" height="72" rx="14" fill="#fff7ed" stroke="#fdba74"/><text x="539" y="365" fill="#9a3412">Google Gemini</text><rect x="730" y="320" width="160" height="72" rx="14" fill="#faf5ff" stroke="#d8b4fe"/><text x="755" y="365" fill="#6b21a8">Cohere</text><rect x="926" y="320" width="140" height="72" rx="14" fill="#ecfeff" stroke="#67e8f9"/><text x="951" y="365" fill="#0e7490">Ollama</text><rect x="122" y="430" width="190" height="72" rx="14" fill="#f8fafc" stroke="#cbd5e1"/><text x="147" y="475" fill="#334155">Azure OpenAI</text><rect x="348" y="430" width="150" height="72" rx="14" fill="#f8fafc" stroke="#cbd5e1"/><text x="373" y="475" fill="#334155">DALL-E</text><rect x="534" y="430" width="150" height="72" rx="14" fill="#f8fafc" stroke="#cbd5e1"/><text x="559" y="475" fill="#334155">Whisper</text><rect x="720" y="430" width="150" height="72" rx="14" fill="#f8fafc" stroke="#cbd5e1"/><text x="745" y="475" fill="#334155">Rerank</text><rect x="906" y="430" width="160" height="72" rx="14" fill="#f8fafc" stroke="#cbd5e1"/><text x="931" y="475" fill="#334155">Embedding</text></g></svg>